<svg xmlns="http://www.w3.org/2000/svg" viewBox="0 0 100 100">
  <defs>
    <style>
      .horse-icon { fill: #2c5530; }
      .accent { fill: #4a7c59; }
    </style>
  </defs>
  
  <!-- Background circle -->
  <circle cx="50" cy="50" r="48" fill="#ffffff" stroke="#2c5530" stroke-width="4"/>
  
  <!-- Horse silhouette -->
  <path class="horse-icon" d="M25 45 Q30 35 40 38 Q45 32 55 35 Q65 30 75 40 Q72 45 70 50 Q75 55 70 65 Q65 70 55 68 Q50 72 45 68 Q40 70 35 65 Q30 60 25 55 Z"/>
  
  <!-- Horse details -->
  <path class="accent" d="M40 42 Q45 38 50 42 Q55 38 60 42 Q58 45 55 47 Q50 50 45 47 Q42 45 40 42"/>
  
  <!-- Eye -->
  <circle cx="48" cy="44" r="2" fill="#ffffff"/>
  
  <!-- Mane -->
  <path class="accent" d="M35 38 Q40 35 45 38 Q50 35 55 38 Q52 40 48 42 Q45 40 42 42 Q38 40 35 38"/>
</svg> 